<?xml version="1.0" standalone="no"?><!DOCTYPE svg PUBLIC "-//W3C//DTD SVG 1.1//EN" "http://www.w3.org/Graphics/SVG/1.1/DTD/svg11.dtd"><svg t="1599276068215" class="icon" viewBox="0 0 1024 1024" version="1.1" xmlns="http://www.w3.org/2000/svg" p-id="6848" xmlns:xlink="http://www.w3.org/1999/xlink" width="128" height="128"><defs><style type="text/css"></style></defs><path d="M764.5184 54.38464h-512c-84.82816 0-153.6 68.78208-153.6 153.6v608.6144c0 84.82816 68.77184 153.6 153.6 153.6h512c84.82816 0 153.6-68.77184 153.6-153.6V207.98464c0-84.82816-68.77184-153.6-153.6-153.6z m81.92 762.20416c0 45.16864-36.75136 81.92-81.92 81.92h-512c-45.16864 0-81.92-36.75136-81.92-81.92V207.98464c0-45.1584 36.75136-81.92 81.92-81.92h512c45.16864 0 81.92 36.7616 81.92 81.92v608.60416z" fill="#3E3A39" p-id="6849"></path><path d="M706.63168 201.80992H563.26144a81.92 81.92 0 0 0-81.92 81.92v151.63392a81.92 81.92 0 0 0 81.92 81.92h143.37024a81.92 81.92 0 0 0 81.92-81.92V283.72992a81.92 81.92 0 0 0-81.92-81.92z m10.24 233.55392c0 5.64224-4.58752 10.24-10.24 10.24H563.26144c-5.64224 0-10.24-4.59776-10.24-10.24V283.72992c0-5.65248 4.59776-10.24 10.24-10.24h143.37024a10.24 10.24 0 0 1 10.24 10.24v151.63392zM431.7184 254.44352c0 19.80416-16.03584 35.84-35.84 35.84h-133.12a35.84 35.84 0 1 1 0-71.68h133.12a35.84 35.84 0 0 1 35.84 35.84zM431.7184 449.80224c0 19.80416-16.03584 35.84-35.84 35.84h-133.12a35.84 35.84 0 1 1 0-71.68h133.12a35.84 35.84 0 0 1 35.84 35.84zM790.1184 628.21376a35.84 35.84 0 0 1-35.84 35.84h-491.52a35.84 35.84 0 1 1 0-71.68h491.52a35.84 35.84 0 0 1 35.84 35.84zM687.7184 786.92352a35.84 35.84 0 0 1-35.84 35.84h-389.12a35.84 35.84 0 1 1 0-71.68h389.12a35.84 35.84 0 0 1 35.84 35.84z" fill="#3E3A39" p-id="6850"></path></svg>