<?xml version="1.0" standalone="no"?><!DOCTYPE svg PUBLIC "-//W3C//DTD SVG 1.1//EN" "http://www.w3.org/Graphics/SVG/1.1/DTD/svg11.dtd"><svg t="1600351594496" class="icon" viewBox="0 0 1024 1024" version="1.1" xmlns="http://www.w3.org/2000/svg" p-id="3737" xmlns:xlink="http://www.w3.org/1999/xlink" width="200" height="200"><defs><style type="text/css"></style></defs><path d="M853.32992 102.4H170.67008C133.13024 102.4 102.4 133.13024 102.4 170.67008v682.65984C102.4 890.86976 133.13024 921.6 170.67008 921.6h682.65984C890.86976 921.6 921.6 890.86976 921.6 853.32992V170.67008C921.6 133.13024 890.86976 102.4 853.32992 102.4zM389.60128 600.2688l-48.27136 48.26112L204.8 512l136.57088-136.52992 48.26112 48.26112L301.33248 512l88.2688 88.2688zM465.02912 819.2l-65.92512-17.67424L558.97088 204.8l65.92512 17.67424L465.02912 819.2z m217.6-170.67008L634.368 600.2688 722.66752 512l-88.2688-88.2688 48.27136-48.26112L819.2 512 682.62912 648.52992z" p-id="3738"></path></svg>