<?xml version="1.0" standalone="no"?><!DOCTYPE svg PUBLIC "-//W3C//DTD SVG 1.1//EN" "http://www.w3.org/Graphics/SVG/1.1/DTD/svg11.dtd"><svg t="1600351668651" class="icon" viewBox="0 0 1024 1024" version="1.1" xmlns="http://www.w3.org/2000/svg" p-id="4410" xmlns:xlink="http://www.w3.org/1999/xlink" width="200" height="200"><defs><style type="text/css"></style></defs><path d="M247.893333 85.333333C206.08 89.173333 170.666667 128 170.666667 170.666667v682.666666c0 44.8 40.533333 85.333333 85.333333 85.333334h512c44.8 0 85.333333-40.533333 85.333333-85.333334V170.666667a85.333333 85.333333 0 0 0-85.333333-85.333334h-256v298.666667L405.333333 320 298.666667 384V85.333333H247.893333M512 554.666667h42.666667a42.666667 42.666667 0 0 1 42.666666 42.666666v170.666667h-42.666666v-85.333333h-42.666667v85.333333h-42.666667v-170.666667a42.666667 42.666667 0 0 1 42.666667-42.666666m0 42.666666v42.666667h42.666667v-42.666667h-42.666667m128 42.666667h128v42.666667l-85.333333 128h85.333333v42.666666h-128v-42.666666l85.333333-128h-85.333333v-42.666667z" fill="" p-id="4411"></path></svg>