<?xml version="1.0" standalone="no"?><!DOCTYPE svg PUBLIC "-//W3C//DTD SVG 1.1//EN" "http://www.w3.org/Graphics/SVG/1.1/DTD/svg11.dtd"><svg t="1600357365899" class="icon" viewBox="0 0 1024 1024" version="1.1" xmlns="http://www.w3.org/2000/svg" p-id="4946" xmlns:xlink="http://www.w3.org/1999/xlink" width="200" height="200"><defs><style type="text/css"></style></defs><path d="M870.4 256h-153.6V153.6a51.2 51.2 0 0 0-102.4 0v102.4H409.6V153.6a51.2 51.2 0 0 0-102.4 0v102.4H153.6a51.2 51.2 0 0 0 0 102.4h51.2v102.4a51.2 51.2 0 0 0 0 12.8A322.56 322.56 0 0 0 204.8 512a307.2 307.2 0 0 0 256 302.592V921.6h102.4v-107.008A307.2 307.2 0 0 0 819.2 512a322.56 322.56 0 0 0 0-38.4A51.2 51.2 0 0 0 819.2 460.8V358.4h51.2a51.2 51.2 0 0 0 0-102.4z m-153.6 204.8h-7.168a209.408 209.408 0 0 1 7.168 51.2 204.8 204.8 0 0 1-409.6 0 209.408 209.408 0 0 1 7.168-51.2H307.2V358.4h409.6z" fill="" p-id="4947"></path></svg>