<?xml version="1.0" standalone="no"?><!DOCTYPE svg PUBLIC "-//W3C//DTD SVG 1.1//EN" "http://www.w3.org/Graphics/SVG/1.1/DTD/svg11.dtd"><svg t="1599969920191" class="icon" viewBox="0 0 1024 1024" version="1.1" xmlns="http://www.w3.org/2000/svg" p-id="12840" xmlns:xlink="http://www.w3.org/1999/xlink" width="200" height="200"><defs><style type="text/css"></style></defs><path d="M950.71 521.786L757.935 329.011c-11.019-11.019-29.861-3.215-29.861 12.369v115.928H412.098c-28.821 0-52.188 32.546-52.188 72.687s23.367 72.687 52.188 72.687h315.977V726.93c0 15.584 18.841 23.388 29.861 12.369L950.71 546.523c6.831-6.831 6.831-17.906 0-24.737z" p-id="12841"></path><path d="M547.856 799.32H183.095l0.168-574.639h364.593v201.124h114.928V224.68c0-63.37-51.558-114.928-114.928-114.928H183.095c-63.37 0-114.928 51.558-114.928 114.928v574.64c0 63.37 51.558 114.928 114.928 114.928h364.761c63.37 0 114.928-51.558 114.928-114.928V634.184H547.856V799.32zM183.081 224.68l0.014-57.464v57.464h-0.014z" p-id="12842"></path></svg>