<?xml version="1.0" standalone="no"?><!DOCTYPE svg PUBLIC "-//W3C//DTD SVG 1.1//EN" "http://www.w3.org/Graphics/SVG/1.1/DTD/svg11.dtd"><svg t="1599968332402" class="icon" viewBox="0 0 1024 1024" version="1.1" xmlns="http://www.w3.org/2000/svg" p-id="9199" xmlns:xlink="http://www.w3.org/1999/xlink" width="200" height="200"><defs><style type="text/css"></style></defs><path d="M685.909333 85.333333h144.426667A108.757333 108.757333 0 0 1 938.666667 194.56v145.706667a108.757333 108.757333 0 0 1-108.330667 109.226666h-144.426667a108.757333 108.757333 0 0 1-108.330666-109.226666V194.56A108.757333 108.757333 0 0 1 685.909333 85.333333" fill="#200E32" opacity=".4" p-id="9200"></path><path d="M338.090667 574.549333a108.757333 108.757333 0 0 1 108.330666 109.226667v145.664A108.8 108.8 0 0 1 338.090667 938.666667H193.706667A108.8 108.8 0 0 1 85.333333 829.44v-145.706667a108.757333 108.757333 0 0 1 108.330667-109.226666h144.426667z m492.245333 0A108.757333 108.757333 0 0 1 938.666667 683.776v145.664A108.8 108.8 0 0 1 830.336 938.666667h-144.426667a108.8 108.8 0 0 1-108.330666-109.226667v-145.706667a108.757333 108.757333 0 0 1 108.330666-109.226666h144.426667zM338.090667 85.333333a108.757333 108.757333 0 0 1 108.330666 109.226667v145.706667a108.757333 108.757333 0 0 1-108.330666 109.226666H193.706667A108.757333 108.757333 0 0 1 85.333333 340.224V194.56A108.757333 108.757333 0 0 1 193.664 85.333333h144.426667z" fill="#200E32" p-id="9201"></path></svg>