<?xml version="1.0" standalone="no"?><!DOCTYPE svg PUBLIC "-//W3C//DTD SVG 1.1//EN" "http://www.w3.org/Graphics/SVG/1.1/DTD/svg11.dtd"><svg t="1599968503805" class="icon" viewBox="0 0 1024 1024" version="1.1" xmlns="http://www.w3.org/2000/svg" p-id="11525" xmlns:xlink="http://www.w3.org/1999/xlink" width="200" height="200"><defs><style type="text/css"></style></defs><path d="M980.409 667.623l-93.586-54.031c8.703-32.273 13.373-66.202 13.373-101.226 0-35.023-4.67-68.952-13.372-101.225l93.585-54.032c10.221-5.898 15.687-15.572 12.205-21.601L905.637 184.86c-3.481-6.029-14.59-6.13-24.811-0.231L787.175 238.7c-47.722-47.927-107.897-83.426-175.261-101.271V29.371C611.914 17.568 606.271 8 599.309 8H425.355c-6.963 0-12.605 9.568-12.605 21.371V137.43c-67.363 17.844-127.539 53.344-175.261 101.269l-93.652-54.07c-10.222-5.901-21.33-5.798-24.811 0.231L32.049 335.508c-3.482 6.029 1.983 15.7 12.206 21.601l93.584 54.031c-8.703 32.274-13.372 66.203-13.372 101.226 0 35.024 4.669 68.953 13.372 101.226l-93.584 54.031c-10.221 5.901-15.688 15.572-12.206 21.602l86.977 150.648c3.481 6.029 14.589 6.133 24.811 0.231l93.653-54.07c47.722 47.925 107.897 83.424 175.26 101.269v108.059c0 11.8 5.643 21.37 12.605 21.37h173.954c6.962 0 12.605-9.57 12.605-21.37V887.303c67.361-17.847 127.537-53.346 175.259-101.269l93.654 54.07c10.221 5.901 21.329 5.8 24.811-0.229l86.977-150.648c3.481-6.032-1.985-15.703-12.206-21.604z m-496.573 44.306L312.783 626.4V483.856l171.053 85.526v142.547z m228.071-85.53l-171.054 85.529V569.383l171.054-85.526v142.542zM512.345 512.366l-199.59-99.779 199.59-99.783 199.562 99.783-199.562 99.779z" p-id="11526"></path></svg>