<?xml version="1.0" standalone="no"?><!DOCTYPE svg PUBLIC "-//W3C//DTD SVG 1.1//EN" "http://www.w3.org/Graphics/SVG/1.1/DTD/svg11.dtd"><svg t="1600357274994" class="icon" viewBox="0 0 1024 1024" version="1.1" xmlns="http://www.w3.org/2000/svg" p-id="3967" xmlns:xlink="http://www.w3.org/1999/xlink" width="200" height="200"><defs><style type="text/css"></style></defs><path d="M1005.26 429.26l-90.5-90.5c-12-12-28.28-18.74-45.26-18.74H768V160c0-53.02-42.98-96-96-96H352c-53.02 0-96 42.98-96 96v160H154.5c-16.98 0-33.24 6.74-45.26 18.74L18.74 429.26c-12 12-18.74 28.28-18.74 45.26V640h256v-32c0-17.68 14.32-32 32-32h64c17.68 0 32 14.32 32 32v32h256v-32c0-17.68 14.32-32 32-32h64c17.68 0 32 14.32 32 32v32h256v-165.5c0-16.96-6.74-33.24-18.74-45.24zM640 320H384V192h256v128z m128 416c0 17.68-14.32 32-32 32h-64c-17.68 0-32-14.32-32-32v-32H384v32c0 17.68-14.32 32-32 32h-64c-17.68 0-32-14.32-32-32v-32H0v192c0 35.34 28.66 64 64 64h896c35.34 0 64-28.66 64-64v-192H768v32z" fill="" p-id="3968"></path></svg>